<svg version="1.1" xmlns="http://www.w3.org/2000/svg" xmlns:xlink="http://www.w3.org/1999/xlink" width="124.00329" height="126.18392" viewBox="1219.04558,535.34101,124.00329,126.18392"><g fill="#ffffff" fill-rule="evenodd" stroke="none" stroke-width="1" stroke-linecap="butt" stroke-linejoin="miter" stroke-miterlimit="10" stroke-dasharray="" stroke-dashoffset="0" font-family="none" font-weight="none" font-size="none" text-anchor="none" style="mix-blend-mode: normal"><path d="M1280,535.5c15.36363,-1.13343 37.50543,3.62288 51.049,19.77686c-5.81624,-1.3475 -11.76148,-2.08431 -17.739,-2.19586c-13.87133,0 -27.30467,4.67967 -40.3,14.039c-13.6,9.89733 -20.4,20.83867 -20.4,32.824c0,10.16733 4.78067,17.97767 14.342,23.431c7.474,4.242 16.53,6.565 27.168,6.969c11.984,0.338 22.05067,2.627 30.2,6.867c2.91738,1.4896 5.39277,3.143 7.42615,4.96019c-8.21347,12.37208 -21.6508,18.82636 -42.74615,19.32881c-35.2,0.839 -79.874,-19.406 -68,-74c7.76,-35.678 25.518,-49.529 59,-52zM1343,594.5c-0.3513,10.21944 -1.30301,19.27472 -3.06915,27.16286c-7.7113,-4.88061 -17.25792,-7.74389 -28.63985,-8.58986c-10.63933,-0.74 -17.81,-1.548 -21.512,-2.424c-9.96533,-2.288 -14.94767,-6.22667 -14.947,-11.816c0,-7.406 3.77067,-13.70133 11.312,-18.886c7.33733,-5.05 16.25833,-7.64233 26.763,-7.777c3.702,-0.06667 8.92033,0.62333 15.655,2.07c5.74434,1.23394 10.01761,1.94211 12.81984,2.12453c1.25599,5.39207 1.8487,11.41813 1.61816,18.13547z" id="CompoundPath 1"/></g></svg>